<mxfile host="app.diagrams.net" modified="2022-03-21T05:30:45.882Z" agent="5.0 (Windows NT 10.0; Win64; x64) AppleWebKit/537.36 (KHTML, like Gecko) Chrome/99.0.4844.74 Safari/537.36 Edg/99.0.1150.46" etag="1-xQ4T_db82v2KvL65OR" version="17.1.3" type="github">
  <diagram id="6HJbX8xjSHiphjpHN3d-" name="Page-1">
    <mxGraphModel dx="2062" dy="762" grid="1" gridSize="10" guides="1" tooltips="1" connect="1" arrows="1" fold="1" page="1" pageScale="1" pageWidth="827" pageHeight="1169" math="0" shadow="0">
      <root>
        <mxCell id="0" />
        <mxCell id="1" parent="0" />
        <mxCell id="1ClQActKmiOmDfNbaTkT-4" value="" style="edgeStyle=orthogonalEdgeStyle;rounded=0;orthogonalLoop=1;jettySize=auto;html=1;" parent="1" source="1ClQActKmiOmDfNbaTkT-2" target="1ClQActKmiOmDfNbaTkT-3" edge="1">
          <mxGeometry relative="1" as="geometry" />
        </mxCell>
        <mxCell id="1ClQActKmiOmDfNbaTkT-2" value="创建测试" style="ellipse;whiteSpace=wrap;html=1;" parent="1" vertex="1">
          <mxGeometry x="464" y="60" width="86" height="40" as="geometry" />
        </mxCell>
        <mxCell id="1ClQActKmiOmDfNbaTkT-6" value="" style="edgeStyle=orthogonalEdgeStyle;rounded=0;orthogonalLoop=1;jettySize=auto;html=1;" parent="1" source="1ClQActKmiOmDfNbaTkT-3" target="1ClQActKmiOmDfNbaTkT-5" edge="1">
          <mxGeometry relative="1" as="geometry" />
        </mxCell>
        <mxCell id="1ClQActKmiOmDfNbaTkT-3" value="一个或多个指令链" style="whiteSpace=wrap;html=1;" parent="1" vertex="1">
          <mxGeometry x="447" y="137" width="120" height="60" as="geometry" />
        </mxCell>
        <mxCell id="1ClQActKmiOmDfNbaTkT-8" value="" style="edgeStyle=orthogonalEdgeStyle;rounded=0;orthogonalLoop=1;jettySize=auto;html=1;" parent="1" source="1ClQActKmiOmDfNbaTkT-5" target="1ClQActKmiOmDfNbaTkT-7" edge="1">
          <mxGeometry relative="1" as="geometry" />
        </mxCell>
        <mxCell id="1ClQActKmiOmDfNbaTkT-5" value="调整执行序列" style="whiteSpace=wrap;html=1;" parent="1" vertex="1">
          <mxGeometry x="445" y="240" width="123" height="40" as="geometry" />
        </mxCell>
        <mxCell id="1ClQActKmiOmDfNbaTkT-10" value="否" style="edgeStyle=orthogonalEdgeStyle;rounded=0;orthogonalLoop=1;jettySize=auto;html=1;" parent="1" source="1ClQActKmiOmDfNbaTkT-7" target="1ClQActKmiOmDfNbaTkT-9" edge="1">
          <mxGeometry relative="1" as="geometry" />
        </mxCell>
        <mxCell id="1ClQActKmiOmDfNbaTkT-12" style="edgeStyle=orthogonalEdgeStyle;rounded=0;orthogonalLoop=1;jettySize=auto;html=1;exitX=0;exitY=0.5;exitDx=0;exitDy=0;entryX=0.5;entryY=0;entryDx=0;entryDy=0;" parent="1" source="1ClQActKmiOmDfNbaTkT-7" target="1ClQActKmiOmDfNbaTkT-11" edge="1">
          <mxGeometry relative="1" as="geometry" />
        </mxCell>
        <mxCell id="1ClQActKmiOmDfNbaTkT-13" value="是" style="edgeLabel;html=1;align=center;verticalAlign=middle;resizable=0;points=[];" parent="1ClQActKmiOmDfNbaTkT-12" vertex="1" connectable="0">
          <mxGeometry x="0.0109" relative="1" as="geometry">
            <mxPoint x="37" as="offset" />
          </mxGeometry>
        </mxCell>
        <mxCell id="1ClQActKmiOmDfNbaTkT-7" value="是否需要&lt;br&gt;实验后分析" style="rhombus;whiteSpace=wrap;html=1;" parent="1" vertex="1">
          <mxGeometry x="450" y="320" width="113" height="80" as="geometry" />
        </mxCell>
        <mxCell id="1ClQActKmiOmDfNbaTkT-9" value="执行" style="rounded=0;whiteSpace=wrap;html=1;" parent="1" vertex="1">
          <mxGeometry x="447" y="542" width="120" height="60" as="geometry" />
        </mxCell>
        <mxCell id="1ClQActKmiOmDfNbaTkT-18" style="edgeStyle=orthogonalEdgeStyle;rounded=0;orthogonalLoop=1;jettySize=auto;html=1;exitX=0.5;exitY=1;exitDx=0;exitDy=0;entryX=0;entryY=0.5;entryDx=0;entryDy=0;" parent="1" source="1ClQActKmiOmDfNbaTkT-11" target="1ClQActKmiOmDfNbaTkT-9" edge="1">
          <mxGeometry relative="1" as="geometry" />
        </mxCell>
        <mxCell id="1ClQActKmiOmDfNbaTkT-11" value="选择算法" style="rounded=0;whiteSpace=wrap;html=1;" parent="1" vertex="1">
          <mxGeometry x="296" y="438" width="120" height="60" as="geometry" />
        </mxCell>
        <mxCell id="1ClQActKmiOmDfNbaTkT-17" value="" style="edgeStyle=orthogonalEdgeStyle;rounded=0;orthogonalLoop=1;jettySize=auto;html=1;dashed=1;" parent="1" source="1ClQActKmiOmDfNbaTkT-16" target="1ClQActKmiOmDfNbaTkT-11" edge="1">
          <mxGeometry relative="1" as="geometry" />
        </mxCell>
        <mxCell id="1ClQActKmiOmDfNbaTkT-16" value="&lt;span&gt;定制化&lt;/span&gt;&lt;br&gt;&lt;span&gt;脚本或插件&lt;/span&gt;" style="shape=document;whiteSpace=wrap;html=1;boundedLbl=1;" parent="1" vertex="1">
          <mxGeometry x="127" y="433" width="110" height="70" as="geometry" />
        </mxCell>
        <mxCell id="Mm4i9tupRKRqrrhl5522-1" style="edgeStyle=orthogonalEdgeStyle;rounded=0;orthogonalLoop=1;jettySize=auto;html=1;exitX=0.875;exitY=0.5;exitDx=0;exitDy=0;exitPerimeter=0;entryX=0;entryY=0.5;entryDx=0;entryDy=0;" edge="1" parent="1" source="1ClQActKmiOmDfNbaTkT-20" target="1ClQActKmiOmDfNbaTkT-3">
          <mxGeometry relative="1" as="geometry" />
        </mxCell>
        <mxCell id="1ClQActKmiOmDfNbaTkT-20" value="服务器上的&lt;br&gt;发布版指令链" style="ellipse;shape=cloud;whiteSpace=wrap;html=1;" parent="1" vertex="1">
          <mxGeometry x="245" y="127" width="130" height="80" as="geometry" />
        </mxCell>
      </root>
    </mxGraphModel>
  </diagram>
</mxfile>
